<?xml version="1.0" encoding="utf-8"?>
<svg version="1.0" id="Layer_1" xmlns="http://www.w3.org/2000/svg" xmlns:xlink="http://www.w3.org/1999/xlink" x="0px" y="0px"
     viewBox="0 0 1500 1500" enable-background="new 0 0 1500 1500" xml:space="preserve">
    <g id="XMLID_1_">
	    <circle id="XMLID_2_" fill="#EFEFEF" cx="750" cy="750" r="750"/>
        <g>
            <path transform="translate(200.000000,1200.000000) scale(0.100000,-0.100000)" id="XMLID_3_" fill="#f26649"
                  d="M5411  9270 c-373 -100 -617 -464 -562 -838 8 -52 104 -372 271 -898
            l259 -816 -281 -541 c-154 -298 -284 -546 -289 -551 -5 -5 -312 12 -750 43
            l-741 52 -1192 390 c-1347 441 -1299 428 -1491 395 -174 -29 -312 -102 -432
            -229 -81 -87 -134 -174 -170 -282 -25 -74 -27 -93 -27 -240 0 -147 2 -166 27
            -240 40 -119 91 -199 192 -301 74 -74 107 -99 175 -132 51 -25 320 -119 670
            -233 322 -105 586 -192 588 -194 1 -1 -114 -104 -256 -228 -142 -124 -282
            -251 -311 -284 -60 -66 -133 -206 -158 -303 -12 -45 -17 -104 -17 -190 0 -150
            15 -216 79 -346 73 -149 217 -286 370 -353 85 -38 202 -61 305 -61 151 0 281
            36 405 111 31 18 347 287 703 596 543 472 652 563 677 563 69 1 1211 -82 1217
            -88 8 -9 222 -682 217 -686 -2 -1 -434 -103 -959 -225 -525 -123 -982 -234
            -1015 -248 -401 -168 -580 -643 -391 -1038 89 -188 251 -326 461 -397 61 -20
            89 -23 220 -23 l150 0 1050 247 c578 136 1058 248 1068 250 15 2 98 -148 440
            -792 232 -437 437 -816 454 -841 86 -125 250 -240 413 -290 109 -34 311 -34
            420 0 161 50 312 154 404 279 55 75 104 183 127 279 29 120 23 292 -13 404
            -16 49 -222 447 -576 1115 l-550 1039 -251 792 -251 792 331 638 c182 351 334
            642 339 646 4 5 758 294 1674 642 917 349 1699 651 1739 672 104 54 239 191
            294 298 71 139 88 209 88 370 -1 132 -2 146 -33 235 -89 256 -281 434 -541
            501 -99 25 -259 25 -361 0 -41 -10 -715 -264 -1498 -566 -783 -301 -1424 -546
            -1426 -544 -2 2 -85 265 -186 584 -219 695 -233 729 -365 860 -103 103 -168
            144 -292 188 -79 28 -102 31 -228 34 -115 2 -153 -1 -214 -17z"/>
        </g>
    </g>
</svg>
